<?xml version="1.0" encoding="UTF-8" standalone="no"?>
<svg
   xmlns:dc="http://purl.org/dc/elements/1.1/"
   xmlns:cc="http://creativecommons.org/ns#"
   xmlns:rdf="http://www.w3.org/1999/02/22-rdf-syntax-ns#"
   xmlns:svg="http://www.w3.org/2000/svg"
   xmlns="http://www.w3.org/2000/svg"
   viewBox="50 350 700 340"
   height="100%"
   width="100%"
   xml:space="preserve"
   id="svg2"
   version="1.1"><metadata
     id="metadata8"><rdf:RDF><cc:Work
         rdf:about=""><dc:format>image/svg+xml</dc:format><dc:type
           rdf:resource="http://purl.org/dc/dcmitype/StillImage" /></cc:Work></rdf:RDF></metadata><defs
     id="defs6"><linearGradient
       id="linearGradient30"
       spreadMethod="pad"
       gradientTransform="matrix(333.55215,0,0,-333.55215,210.8712,475.50247)"
       gradientUnits="userSpaceOnUse"
       y2="0"
       x2="1"
       y1="0"
       x1="0"><stop
         id="stop24"
         offset="0"
         style="stop-opacity:1;stop-color:#00019f" /><stop
         id="stop26"
         offset="0.995345"
         style="stop-opacity:1;stop-color:#7f006a" /><stop
         id="stop28"
         offset="1"
         style="stop-opacity:1;stop-color:#7f006a" /></linearGradient><linearGradient
       id="linearGradient52"
       spreadMethod="pad"
       gradientTransform="matrix(204.89635,0,0,-204.89635,77.232597,469.23431)"
       gradientUnits="userSpaceOnUse"
       y2="0"
       x2="1"
       y1="0"
       x1="0"><stop
         id="stop46"
         offset="0"
         style="stop-opacity:1;stop-color:#00019f" /><stop
         id="stop48"
         offset="0.995345"
         style="stop-opacity:1;stop-color:#7f006a" /><stop
         id="stop50"
         offset="1"
         style="stop-opacity:1;stop-color:#7f006a" /></linearGradient><linearGradient
       id="linearGradient74"
       spreadMethod="pad"
       gradientTransform="matrix(31.680176,0,0,-31.680176,84.95092,366.54132)"
       gradientUnits="userSpaceOnUse"
       y2="0"
       x2="1"
       y1="0"
       x1="0"><stop
         id="stop68"
         offset="0"
         style="stop-opacity:1;stop-color:#00019f" /><stop
         id="stop70"
         offset="0.6333948"
         style="stop-opacity:1;stop-color:#00019f" /><stop
         id="stop72"
         offset="1"
         style="stop-opacity:1;stop-color:#7f006a" /></linearGradient><linearGradient
       id="linearGradient96"
       spreadMethod="pad"
       gradientTransform="matrix(30.659668,0,0,-30.659668,117.41039,360.33136)"
       gradientUnits="userSpaceOnUse"
       y2="0"
       x2="1"
       y1="0"
       x1="0"><stop
         id="stop90"
         offset="0"
         style="stop-opacity:1;stop-color:#00019f" /><stop
         id="stop92"
         offset="0.5"
         style="stop-opacity:1;stop-color:#7f006a" /><stop
         id="stop94"
         offset="1"
         style="stop-opacity:1;stop-color:#7f006a" /></linearGradient><linearGradient
       id="linearGradient118"
       spreadMethod="pad"
       gradientTransform="matrix(6.1801758,0,0,-6.1801758,151.01001,366.54132)"
       gradientUnits="userSpaceOnUse"
       y2="0"
       x2="1"
       y1="0"
       x1="0"><stop
         id="stop112"
         offset="0"
         style="stop-opacity:1;stop-color:#00019f" /><stop
         id="stop114"
         offset="0.5"
         style="stop-opacity:1;stop-color:#7f006a" /><stop
         id="stop116"
         offset="1"
         style="stop-opacity:1;stop-color:#7f006a" /></linearGradient><linearGradient
       id="linearGradient140"
       spreadMethod="pad"
       gradientTransform="matrix(28.020019,0,0,-28.020019,161.32935,360.06134)"
       gradientUnits="userSpaceOnUse"
       y2="0"
       x2="1"
       y1="0"
       x1="0"><stop
         id="stop134"
         offset="0"
         style="stop-opacity:1;stop-color:#00019f" /><stop
         id="stop136"
         offset="0.5"
         style="stop-opacity:1;stop-color:#7f006a" /><stop
         id="stop138"
         offset="1"
         style="stop-opacity:1;stop-color:#7f006a" /></linearGradient><linearGradient
       id="linearGradient162"
       spreadMethod="pad"
       gradientTransform="matrix(23.159668,0,0,-23.159668,190.78979,365.2215)"
       gradientUnits="userSpaceOnUse"
       y2="0"
       x2="1"
       y1="0"
       x1="0"><stop
         id="stop156"
         offset="0"
         style="stop-opacity:1;stop-color:#00019f" /><stop
         id="stop158"
         offset="0.5"
         style="stop-opacity:1;stop-color:#7f006a" /><stop
         id="stop160"
         offset="1"
         style="stop-opacity:1;stop-color:#7f006a" /></linearGradient><linearGradient
       id="linearGradient184"
       spreadMethod="pad"
       gradientTransform="matrix(8.5200195,0,0,-8.5200195,215.32886,366.54132)"
       gradientUnits="userSpaceOnUse"
       y2="0"
       x2="1"
       y1="0"
       x1="0"><stop
         id="stop178"
         offset="0"
         style="stop-opacity:1;stop-color:#00019f" /><stop
         id="stop180"
         offset="0.5"
         style="stop-opacity:1;stop-color:#7f006a" /><stop
         id="stop182"
         offset="1"
         style="stop-opacity:1;stop-color:#7f006a" /></linearGradient><linearGradient
       id="linearGradient206"
       spreadMethod="pad"
       gradientTransform="matrix(30.659668,0,0,-30.659668,225.64917,360.33136)"
       gradientUnits="userSpaceOnUse"
       y2="0"
       x2="1"
       y1="0"
       x1="0"><stop
         id="stop200"
         offset="0"
         style="stop-opacity:1;stop-color:#7f006a" /><stop
         id="stop202"
         offset="0.615456"
         style="stop-opacity:1;stop-color:#7f006a" /><stop
         id="stop204"
         offset="1"
         style="stop-opacity:1;stop-color:#00019f" /></linearGradient><linearGradient
       id="linearGradient228"
       spreadMethod="pad"
       gradientTransform="matrix(28.020019,0,0,-28.020019,259.24829,360.57159)"
       gradientUnits="userSpaceOnUse"
       y2="0"
       x2="1"
       y1="0"
       x1="0"><stop
         id="stop222"
         offset="0"
         style="stop-opacity:1;stop-color:#7f006a" /><stop
         id="stop224"
         offset="0.20091254"
         style="stop-opacity:1;stop-color:#00019f" /><stop
         id="stop226"
         offset="1"
         style="stop-opacity:1;stop-color:#00019f" /></linearGradient><linearGradient
       id="linearGradient250"
       spreadMethod="pad"
       gradientTransform="matrix(24.570801,0,0,-24.570801,289.60767,360.33136)"
       gradientUnits="userSpaceOnUse"
       y2="0"
       x2="1"
       y1="0"
       x1="0"><stop
         id="stop244"
         offset="0"
         style="stop-opacity:1;stop-color:#7f006a" /><stop
         id="stop246"
         offset="0.55900274"
         style="stop-opacity:1;stop-color:#00019f" /><stop
         id="stop248"
         offset="1"
         style="stop-opacity:1;stop-color:#00019f" /></linearGradient></defs><g
     transform="matrix(1.3333333,0,0,-1.3333333,0,1122.52)"
     id="g10"><g
       id="g12"><g
         id="g14"><g
           id="g20"><g
             id="g22"><path
               id="path32"
               style="fill:url(#linearGradient30);stroke:none"
               d="m 297.03,557.139 -8.715,-69.207 c -48.105,44.116 -94.034,-33.469 -71.579,-76.955 v 0 c 9.196,-18.753 28.552,-20.787 46.091,-12.143 v 0 c 6.377,3.144 10.031,8.795 16.319,11.202 v 0 l -1.49,-11.872 h 46.2 l 3,17.819 c 23.057,-33.567 88.267,-27.596 104.301,8.914 v 0 l -36.806,10.132 c -1.628,0.029 -3.287,-1.884 -5.628,-3.799 v 0 c -3.132,-2.558 -7.487,-5.118 -14.63,-3.03 v 0 c -6.782,1.982 -6.764,13.051 -3.292,13.051 v 0 h 62.593 c 4.234,-14.465 8.817,-28.937 12.812,-42.94 v 0 l 45.819,0.097 52.398,99.301 h -49.925 l -19.374,-54.987 -3.727,54.987 h -50.67 l -0.765,-4.478 c -32.178,16.051 -60.101,9.24 -84.176,-11.858 v 0 l 10.425,75.766 z m 96.871,-98.059 h -20.865 c 2.497,14.464 22.908,17.912 20.865,0 M 259.024,448.283 c 1.967,9.532 10.997,19.064 21.233,11.894 v 0 c 7.4,-6.913 1.528,-24 -8.152,-26.074 v 0 c -1.043,-0.151 -2.016,-0.223 -2.925,-0.222 v 0 c -9.098,0 -11.643,7.201 -10.156,14.402" /></g></g></g></g><g
       id="g34"><g
         id="g36"><g
           id="g42"><g
             id="g44"><path
               id="path54"
               style="fill:url(#linearGradient52);stroke:none"
               d="M 148.93,540.613 C 50.76,531.43 54.562,398.667 153.214,395.194 v 0 c 17.864,-1.571 40.936,-0.701 58.897,0.064 v 0 c -14.006,8.872 -16.616,30.929 -14.751,47.426 v 0 c -2.881,0.057 -6.226,-0.04 -9.823,-0.136 v 0 c -18.76,-0.502 -44.4,-1.004 -47.023,20.211 v 0 c -2.558,20.686 8.063,29.754 27.786,31.796 v 0 c 6.038,0.625 18.808,0.455 29.768,0.286 v 0 c 9.956,-0.154 18.419,-0.309 18.992,0.133 v 0 c 17.249,19.388 35.161,22.943 60.532,17.625 v 0 l 4.537,29.675 c -22.244,0.774 -46.49,1.878 -70.711,1.877 v 0 c -21.309,0 -42.6,-0.854 -62.488,-3.538" /></g></g></g></g><g
       id="g56"><g
         id="g58"><g
           id="g64"><g
             id="g66"><path
               id="path76"
               style="fill:url(#linearGradient74);stroke:none"
               d="m 92.811,386.941 c -2.16,-0.959 -3.851,-2.32 -5.07,-4.079 v 0 c -1.22,-1.762 -1.83,-3.881 -1.83,-6.361 v 0 c 0,-2.44 0.54,-4.439 1.62,-6 v 0 c 1.08,-1.56 2.61,-2.811 4.589,-3.75 v 0 c 1.98,-0.941 4.31,-1.73 6.991,-2.37 v 0 l 2.22,-0.54 c 1.84,-0.44 3.42,-0.91 4.74,-1.409 v 0 c 1.32,-0.501 2.34,-1.17 3.06,-2.011 v 0 c 0.719,-0.84 1.08,-1.92 1.08,-3.239 v 0 c 0,-2.001 -0.76,-3.631 -2.28,-4.89 v 0 c -1.52,-1.261 -3.78,-1.891 -6.78,-1.891 v 0 c -2.961,0 -5.331,0.74 -7.11,2.221 v 0 c -1.78,1.478 -2.67,3.699 -2.67,6.66 v 0 1.499 h -6.42 v -1.499 c 0,-3.121 0.69,-5.771 2.07,-7.951 v 0 c 1.38,-2.181 3.29,-3.829 5.729,-4.95 v 0 c 2.44,-1.119 5.24,-1.679 8.401,-1.679 v 0 c 3.159,0 5.9,0.53 8.22,1.589 v 0 c 2.319,1.059 4.11,2.529 5.37,4.41 v 0 c 1.26,1.88 1.89,4.081 1.89,6.6 v 0 c 0,2.521 -0.6,4.58 -1.8,6.181 v 0 c -1.2,1.599 -2.84,2.869 -4.92,3.809 v 0 c -2.08,0.939 -4.481,1.71 -7.199,2.311 v 0 l -2.221,0.54 c -1.8,0.4 -3.3,0.86 -4.5,1.38 v 0 c -1.2,0.519 -2.11,1.19 -2.73,2.009 v 0 c -0.62,0.819 -0.93,1.87 -0.93,3.15 v 0 c 0,1.88 0.71,3.35 2.13,4.41 v 0 c 1.419,1.06 3.409,1.591 5.97,1.591 v 0 c 1.76,0 3.3,-0.261 4.62,-0.781 v 0 c 1.32,-0.52 2.349,-1.341 3.09,-2.459 v 0 c 0.739,-1.121 1.11,-2.581 1.11,-4.381 v 0 -2.16 h 6.42 v 2.16 c 0,2.96 -0.66,5.419 -1.979,7.38 v 0 c -1.322,1.96 -3.131,3.44 -5.431,4.44 v 0 c -2.3,1 -4.91,1.501 -7.83,1.501 v 0 c -2.921,0 -5.46,-0.48 -7.62,-1.441" /></g></g></g></g><g
       id="g78"><g
         id="g80"><g
           id="g86"><g
             id="g88"><path
               id="path98"
               style="fill:url(#linearGradient96);stroke:none"
               d="m 124.82,374.102 c -2.3,-1.24 -4.11,-2.991 -5.43,-5.25 v 0 c -1.32,-2.261 -1.98,-4.951 -1.98,-8.071 v 0 -0.9 c 0,-3.119 0.66,-5.819 1.98,-8.1 v 0 c 1.32,-2.28 3.13,-4.03 5.43,-5.25 v 0 c 2.3,-1.219 4.929,-1.829 7.89,-1.829 v 0 c 2.961,0 5.6,0.61 7.92,1.829 v 0 c 2.32,1.22 4.14,2.97 5.46,5.25 v 0 c 1.32,2.281 1.98,4.981 1.98,8.1 v 0 0.9 c 0,3.12 -0.66,5.81 -1.98,8.071 v 0 c -1.32,2.259 -3.14,4.01 -5.46,5.25 v 0 c -2.32,1.239 -4.959,1.859 -7.92,1.859 v 0 c -2.961,0 -5.59,-0.62 -7.89,-1.859 m 1.32,-21.271 c -1.701,1.74 -2.55,4.149 -2.55,7.231 v 0 0.54 c 0,3.079 0.849,5.489 2.55,7.23 v 0 c 1.7,1.74 3.89,2.61 6.57,2.61 v 0 c 2.761,0 4.98,-0.87 6.66,-2.61 v 0 c 1.68,-1.741 2.52,-4.151 2.52,-7.23 v 0 -0.54 c 0,-3.082 -0.85,-5.491 -2.55,-7.231 v 0 c -1.7,-1.74 -3.91,-2.609 -6.63,-2.609 v 0 c -2.68,0 -4.87,0.869 -6.57,2.609" /></g></g></g></g><g
       id="g100"><g
         id="g102"><g
           id="g108"><g
             id="g110"><path
               id="path120"
               style="fill:url(#linearGradient118);stroke:none"
               d="m 151.01,345.542 h 6.18 v 41.999 h -6.18 z" /></g></g></g></g><g
       id="g122"><g
         id="g124"><g
           id="g130"><g
             id="g132"><path
               id="path142"
               style="fill:url(#linearGradient140);stroke:none"
               d="m 183.17,375.122 v -14.94 c 0,-3.202 -0.771,-5.65 -2.311,-7.351 v 0 c -1.54,-1.7 -3.569,-2.549 -6.089,-2.549 v 0 c -2.28,0 -4.061,0.609 -5.341,1.829 v 0 c -1.28,1.22 -1.919,3.11 -1.919,5.67 v 0 17.341 h -6.181 v -17.761 c 0,-2.56 0.5,-4.76 1.5,-6.599 v 0 c 1,-1.841 2.379,-3.26 4.141,-4.261 v 0 c 1.759,-0.999 3.759,-1.5 5.999,-1.5 v 0 c 2.8,0 4.92,0.532 6.36,1.59 v 0 c 1.441,1.06 2.439,2.19 3,3.391 v 0 h 0.96 v -4.44 h 6.06 v 29.58 z" /></g></g></g></g><g
       id="g144"><g
         id="g146"><g
           id="g152"><g
             id="g154"><path
               id="path164"
               style="fill:url(#linearGradient162);stroke:none"
               d="m 198.949,384.902 v -9.78 h -8.159 v -5.22 h 8.159 v -18.42 c 0,-1.801 0.531,-3.241 1.591,-4.321 v 0 c 1.059,-1.08 2.489,-1.619 4.29,-1.619 v 0 h 8.16 v 5.22 h -6.18 c -1.12,0 -1.68,0.6 -1.68,1.799 v 0 17.341 h 8.82 v 5.22 h -8.82 v 9.78 z" /></g></g></g></g><g
       id="g166"><g
         id="g168"><g
           id="g174"><g
             id="g176"><path
               id="path186"
               style="fill:url(#linearGradient184);stroke:none"
               d="m 216.559,386.372 c -0.821,-0.781 -1.23,-1.79 -1.23,-3.031 v 0 c 0,-1.24 0.409,-2.25 1.23,-3.029 v 0 c 0.819,-0.78 1.83,-1.17 3.03,-1.17 v 0 c 1.239,0 2.259,0.39 3.06,1.17 v 0 c 0.799,0.779 1.2,1.789 1.2,3.029 v 0 c 0,1.241 -0.401,2.25 -1.2,3.031 v 0 c -0.801,0.78 -1.821,1.169 -3.06,1.169 v 0 c -1.2,0 -2.211,-0.389 -3.03,-1.169 m -0.09,-40.83 h 6.18 v 29.58 h -6.18 z" /></g></g></g></g><g
       id="g188"><g
         id="g190"><g
           id="g196"><g
             id="g198"><path
               id="path208"
               style="fill:url(#linearGradient206);stroke:none"
               d="m 233.059,374.102 c -2.301,-1.24 -4.11,-2.991 -5.43,-5.25 v 0 c -1.32,-2.261 -1.98,-4.951 -1.98,-8.071 v 0 -0.9 c 0,-3.119 0.66,-5.819 1.98,-8.1 v 0 c 1.32,-2.28 3.129,-4.03 5.43,-5.25 v 0 c 2.3,-1.219 4.93,-1.829 7.89,-1.829 v 0 c 2.96,0 5.6,0.61 7.92,1.829 v 0 c 2.319,1.22 4.14,2.97 5.46,5.25 v 0 c 1.321,2.281 1.98,4.981 1.98,8.1 v 0 0.9 c 0,3.12 -0.659,5.81 -1.98,8.071 v 0 c -1.32,2.259 -3.141,4.01 -5.46,5.25 v 0 c -2.32,1.239 -4.96,1.859 -7.92,1.859 v 0 c -2.96,0 -5.59,-0.62 -7.89,-1.859 m 1.32,-21.271 c -1.7,1.74 -2.55,4.149 -2.55,7.231 v 0 0.54 c 0,3.079 0.85,5.489 2.55,7.23 v 0 c 1.7,1.74 3.89,2.61 6.57,2.61 v 0 c 2.76,0 4.98,-0.87 6.66,-2.61 v 0 c 1.68,-1.741 2.52,-4.151 2.52,-7.23 v 0 -0.54 c 0,-3.082 -0.851,-5.491 -2.55,-7.231 v 0 c -1.7,-1.74 -3.91,-2.609 -6.63,-2.609 v 0 c -2.68,0 -4.87,0.869 -6.57,2.609" /></g></g></g></g><g
       id="g210"><g
         id="g212"><g
           id="g218"><g
             id="g220"><path
               id="path230"
               style="fill:url(#linearGradient228);stroke:none"
               d="m 269.268,374.041 c -1.44,-1.04 -2.441,-2.16 -2.999,-3.359 v 0 h -0.961 v 4.44 h -6.059 v -29.58 h 6.18 v 14.94 c 0,3.199 0.769,5.64 2.309,7.319 v 0 c 1.539,1.681 3.589,2.52 6.15,2.52 v 0 c 2.24,0 4,-0.61 5.28,-1.83 v 0 c 1.28,-1.22 1.92,-3.11 1.92,-5.669 v 0 -17.28 h 6.18 v 17.759 c 0,2.56 -0.5,4.75 -1.5,6.57 v 0 c -1,1.821 -2.37,3.23 -4.109,4.231 v 0 c -1.741,0.999 -3.731,1.5 -5.971,1.5 v 0 c -2.84,0 -4.98,-0.521 -6.42,-1.561" /></g></g></g></g><g
       id="g232"><g
         id="g234"><g
           id="g240"><g
             id="g242"><path
               id="path252"
               style="fill:url(#linearGradient250);stroke:none"
               d="m 293.731,373.652 c -1.958,-1.541 -2.937,-3.712 -2.937,-6.511 v 0 c 0,-1.88 0.452,-3.419 1.356,-4.619 v 0 c 0.903,-1.201 2.127,-2.14 3.671,-2.821 v 0 c 1.544,-0.68 3.257,-1.2 5.14,-1.56 v 0 l 1.921,-0.36 c 1.845,-0.36 3.239,-0.819 4.18,-1.379 v 0 c 0.941,-0.561 1.412,-1.441 1.412,-2.64 v 0 c 0,-1.201 -0.499,-2.181 -1.497,-2.94 v 0 c -0.999,-0.762 -2.421,-1.141 -4.265,-1.141 v 0 c -1.243,0 -2.4,0.2 -3.473,0.601 v 0 c -1.074,0.399 -1.969,1.08 -2.684,2.039 v 0 c -0.715,0.96 -1.224,2.26 -1.524,3.901 v 0 l -5.424,-1.381 c 0.528,-3.399 1.959,-5.939 4.293,-7.619 v 0 c 2.335,-1.68 5.273,-2.52 8.812,-2.52 v 0 c 3.502,0 6.289,0.82 8.36,2.459 v 0 c 2.07,1.64 3.106,3.94 3.106,6.901 v 0 c 0,1.999 -0.479,3.6 -1.439,4.799 v 0 c -0.961,1.201 -2.27,2.12 -3.926,2.761 v 0 c -1.657,0.639 -3.484,1.14 -5.479,1.499 v 0 l -1.977,0.361 c -1.507,0.279 -2.703,0.699 -3.587,1.259 v 0 c -0.885,0.56 -1.327,1.441 -1.327,2.64 v 0 c 0,1.12 0.452,1.991 1.355,2.611 v 0 c 0.904,0.62 2.147,0.93 3.728,0.93 v 0 c 1.618,0 2.975,-0.371 4.068,-1.11 v 0 c 1.091,-0.742 1.807,-2.011 2.146,-3.811 v 0 l 5.421,1.62 c -0.602,2.56 -1.91,4.59 -3.925,6.09 v 0 c -2.014,1.5 -4.585,2.25 -7.71,2.25 v 0 c -3.239,0 -5.837,-0.77 -7.795,-2.309" /></g></g></g></g></g></svg>